<svg xmlns="http://www.w3.org/2000/svg" viewBox="0 0 64 64"><g id="Layer_23" data-name="Layer 23"><path d="M29.72,31.86,9.41,20.13c-.75-.43-1.35-.09-1.35.76L8,44.24a3,3,0,0,0,1.35,2.33L29.65,58.3c.74.42,1.35.08,1.35-.78l.07-23.34A2.94,2.94,0,0,0,29.72,31.86ZM12.59,30a4.82,4.82,0,0,1-2.17-3.77c0-1.38,1-1.94,2.19-1.24a4.8,4.8,0,0,1,2.17,3.76C14.77,30.1,13.8,30.66,12.59,30ZM26.46,53.46a4.78,4.78,0,0,1-2.18-3.76c0-1.38,1-1.94,2.19-1.24a4.78,4.78,0,0,1,2.17,3.76C28.64,53.6,27.66,54.16,26.46,53.46Z"/><path d="M56,44.24,56,20.89c0-.85-.6-1.19-1.34-.76L34.29,31.86A2.91,2.91,0,0,0,33,34.18L33,57.52c0,.86.61,1.2,1.35.77L54.68,46.56A3,3,0,0,0,56,44.24ZM37.51,38c-1.2.69-2.18.13-2.18-1.25A4.8,4.8,0,0,1,37.5,33c1.2-.7,2.19-.14,2.19,1.24A4.82,4.82,0,0,1,37.51,38Zm7,3.94c-1.2.69-2.18.13-2.18-1.25a4.75,4.75,0,0,1,2.17-3.76c1.2-.7,2.18-.14,2.18,1.24A4.78,4.78,0,0,1,44.49,41.94Zm7,3.49c-1.21.69-2.18.14-2.19-1.25a4.81,4.81,0,0,1,2.17-3.76c1.21-.69,2.18-.13,2.19,1.25A4.81,4.81,0,0,1,51.47,45.43Z"/><path d="M10.33,16.85a.82.82,0,0,0,0,1.55L30.65,30.13a3,3,0,0,0,2.69,0L53.53,18.4c.73-.43.73-1.12,0-1.55L33.2,5.12a3,3,0,0,0-2.69,0Zm23.57-.37a1.33,1.33,0,0,1,0,2.51,4.8,4.8,0,0,1-4.35,0c-1.2-.7-1.21-1.83,0-2.52A4.75,4.75,0,0,1,33.9,16.48Z"/></g></svg>